<?xml version="1.0" encoding="UTF-8" standalone="no"?>
<!-- Created with Inkscape (http://www.inkscape.org/) -->

<svg
   version="1.1"
   id="svg9"
   width="512"
   height="512"
   viewBox="0 0 512 512"
   sodipodi:docname="get_hired.svg"
   inkscape:version="1.1.2 (b8e25be833, 2022-02-05)"
   xmlns:inkscape="http://www.inkscape.org/namespaces/inkscape"
   xmlns:sodipodi="http://sodipodi.sourceforge.net/DTD/sodipodi-0.dtd"
   xmlns="http://www.w3.org/2000/svg"
   xmlns:svg="http://www.w3.org/2000/svg">
  <defs
     id="defs13" />
  <sodipodi:namedview
     id="namedview11"
     pagecolor="#ffffff"
     bordercolor="#666666"
     borderopacity="1.0"
     inkscape:pageshadow="2"
     inkscape:pageopacity="0.0"
     inkscape:pagecheckerboard="0"
     showgrid="false"
     inkscape:zoom="4"
     inkscape:cx="217.5"
     inkscape:cy="232.375"
     inkscape:window-width="1920"
     inkscape:window-height="1011"
     inkscape:window-x="-9"
     inkscape:window-y="-9"
     inkscape:window-maximized="1"
     inkscape:current-layer="g15" />
  <g
     inkscape:groupmode="layer"
     inkscape:label="Image"
     id="g15">
    <ellipse
       style="fill:#ffff00;fill-opacity:1;stroke:#ffffff;stroke-width:0;stroke-linecap:round;stroke-linejoin:round;stroke-miterlimit:4.2;paint-order:markers fill stroke"
       id="path928"
       cx="257.83661"
       cy="233.4706"
       rx="98.883484"
       ry="98.709373" />
    <rect
       style="fill:#f8f8f8;fill-opacity:1;stroke:#ffffff;stroke-width:0;stroke-linecap:round;stroke-linejoin:round;stroke-miterlimit:4.2;paint-order:markers fill stroke"
       id="rect844"
       width="63.724308"
       height="88.099716"
       x="225.29851"
       y="216.59299"
       ry="6.4835291" />
    <rect
       style="fill:#000000;fill-opacity:1;stroke:#ffffff;stroke-width:0;stroke-linecap:round;stroke-linejoin:round;stroke-miterlimit:4.2;paint-order:markers fill stroke"
       id="rect1475"
       width="44.917404"
       height="3.8304224"
       x="234.00037"
       y="272.79102"
       ry="1.2003658" />
    <rect
       style="fill:#000000;fill-opacity:1;stroke:#ffffff;stroke-width:0;stroke-linecap:round;stroke-linejoin:round;stroke-miterlimit:4.2;paint-order:markers fill stroke"
       id="rect1475-5"
       width="44.917404"
       height="3.8304224"
       x="234.00037"
       y="282.62143"
       ry="1.2003658" />
    <rect
       style="fill:#000000;fill-opacity:1;stroke:#ffffff;stroke-width:0;stroke-linecap:round;stroke-linejoin:round;stroke-miterlimit:4.2;paint-order:markers fill stroke"
       id="rect1475-5-3"
       width="27.558268"
       height="3.8304224"
       x="234.48114"
       y="291.49179"
       ry="1.2003658" />
    <ellipse
       style="fill:#15bfd7;fill-opacity:1;stroke:#ffffff;stroke-width:0;stroke-linecap:round;stroke-linejoin:round;stroke-miterlimit:4.2;stroke-opacity:1;paint-order:markers fill stroke"
       id="path1876"
       cx="257.89499"
       cy="245.53767"
       rx="21.0228"
       ry="21.253336" />
    <rect
       style="fill:#ffff00;fill-opacity:1;stroke:#ffffff;stroke-width:0;stroke-linecap:round;stroke-linejoin:round;stroke-miterlimit:4.2;stroke-opacity:1;paint-order:markers fill stroke"
       id="rect4968"
       width="28.193207"
       height="2.3391745"
       x="244.01282"
       y="219.38994"
       ry="1.1695873" />
    <path
       style="fill:none;stroke:#000000;stroke-width:1px;stroke-linecap:butt;stroke-linejoin:miter;stroke-opacity:1"
       d="m 194.64393,157.46337 49.36889,61.92657 0.0893,-1.2e-4 c 2.7652,0.664 5.57842,0.41569 8.40103,-0.0111 L 200.4007,153.04277 Z"
       id="path5120"
       sodipodi:nodetypes="cccccc" />
    <path
       style="fill:#000000;fill-opacity:1;stroke:#ffffff;stroke-width:0;stroke-linecap:round;stroke-linejoin:round;stroke-miterlimit:4.2;stroke-opacity:1;paint-order:markers fill stroke"
       d="m 218.87386,187.16301 -24.22993,-29.69964 2.61341,-2.48543 c 1.1707,-1.11337 3.14378,-1.55078 3.22756,-1.52034 0.11484,0.0417 46.53226,58.99673 49.0663,62.42847 l 0.96537,1.30736 -3.70089,0.59375 -4.21652,-0.84375 z"
       id="path6697"
       sodipodi:nodetypes="ccssscccc" />
    <path
       style="fill:#000000;fill-opacity:1;stroke:#ffffff;stroke-width:0;stroke-linecap:round;stroke-linejoin:round;stroke-miterlimit:4.2;stroke-opacity:1;paint-order:markers fill stroke"
       d="m 299.83139,190.41636 22.78929,-31.54214 -2.52502,-2.27551 c -1.20015,-1.08156 -2.74603,-2.02587 -2.82981,-1.99543 -0.11484,0.0417 -47.32776,59.6044 -49.8618,63.03614 l -1.02787,1.68236 c 0.59031,0.38059 1.10797,0.77157 2.54464,1.03125 1.12322,0.1662 2.23788,0.28527 3.27902,0 z"
       id="path6697-3"
       sodipodi:nodetypes="ccssscccc" />
    <path
       style="fill:#000000;fill-opacity:1;stroke:#ffffff;stroke-width:0;stroke-linecap:round;stroke-linejoin:round;stroke-miterlimit:4.2;stroke-opacity:1;paint-order:markers fill stroke"
       d="m 244.72383,219.92781 -0.94555,-0.20085 -24.0865,-30.2081 C 206.44421,172.9044 195.26394,158.87902 194.84674,158.35135 l -0.75855,-0.9594 3.06922,-2.34869 c 1.68807,-1.29178 3.16081,-2.34869 3.27275,-2.34869 0.29907,0 52.70006,66.78202 52.52573,66.941 -0.5068,0.46217 -6.44041,0.67282 -8.23206,0.29224 z m 6.86184,-0.83581 c 0.10159,-0.10159 -50.99768,-65.3066 -51.24559,-65.39172 -0.19999,-0.0687 -4.99013,3.73594 -4.94744,3.92955 0.0226,0.10249 10.98497,13.92041 24.36083,30.70647 13.37585,16.78606 24.34191,30.54878 24.36902,30.58382 0.25143,0.32508 7.15108,0.48398 7.46318,0.17188 z"
       id="path6997" />
    <path
       style="fill:#000000;fill-opacity:1;stroke:#ffffff;stroke-width:0;stroke-linecap:round;stroke-linejoin:round;stroke-miterlimit:4.2;stroke-opacity:1;paint-order:markers fill stroke"
       d="m 248.19185,219.61726 c -1.05755,0.32315 -2.50651,-0.2941 -2.92444,-0.357 -0.32337,-0.0487 -0.27072,0.60873 -1.10877,-0.23204 -0.0664,-0.0666 -1.70783,-2.41768 -1.70783,-2.4233 0,-0.004 1.62569,-0.008 3.61264,-0.007 l 3.61264,0.001 0.0867,0.11196 c 0.43175,0.55764 1.02174,1.04697 1.29315,1.37109 l 0.60306,0.7202 c 0.80696,-0.0282 0.003,0.29882 0.0755,0.34659 0.57945,0.38468 -2.48649,0.88112 -2.73434,0.87339 -0.0423,-0.001 -0.12988,-0.35956 -0.53485,-0.63138 z"
       id="path7036"
       sodipodi:nodetypes="csssccsscsccc" />
    <path
       style="fill:#000000;fill-opacity:1;stroke:#ffffff;stroke-width:0;stroke-linecap:round;stroke-linejoin:round;stroke-miterlimit:4.2;stroke-opacity:1;paint-order:markers fill stroke"
       d="m 238.70157,211.7392 c -2.08957,-2.62088 -3.80475,-4.77461 -3.81152,-4.78607 -0.0103,-0.0175 0.55553,-0.0208 3.53198,-0.0208 h 3.54429 l 0.43796,0.55787 c 3.4104,4.34402 6.06777,7.74443 6.70178,8.57569 0.16785,0.22006 0.31195,0.40877 0.32022,0.41935 0.012,0.0154 -0.68125,0.0192 -3.45523,0.0192 h -3.47027 z"
       id="path7075" />
    <path
       style="fill:#000000;fill-opacity:1;stroke:#ffffff;stroke-width:0;stroke-linecap:round;stroke-linejoin:round;stroke-miterlimit:4.2;stroke-opacity:1;paint-order:markers fill stroke"
       d="m 240.84679,214.43073 c -4.79334,-6.01326 -5.94711,-7.46168 -5.9577,-7.4792 -0.009,-0.0154 0.70136,-0.0192 3.53306,-0.0192 h 3.5447 l 0.60694,0.77332 c 3.46331,4.41268 5.87837,7.50316 6.50908,8.32946 0.18089,0.23699 0.33555,0.43955 0.34367,0.45013 0.0118,0.0154 -0.68175,0.0192 -3.45598,0.0192 h -3.47076 z"
       id="path7114" />
    <path
       style="fill:#000000;fill-opacity:1;stroke:#ffffff;stroke-width:0;stroke-linecap:round;stroke-linejoin:round;stroke-miterlimit:4.2;stroke-opacity:1;paint-order:markers fill stroke"
       d="m 240.26328,213.69974 c -3.83361,-4.80895 -5.36212,-6.72827 -5.37419,-6.74821 -0.009,-0.0154 0.70144,-0.0192 3.53347,-0.0192 h 3.5451 l 0.46805,0.59634 c 4.06186,5.1752 6.42891,8.20722 6.9622,8.9181 l 0.0433,0.0577 h -3.47104 -3.47104 z"
       id="path7153" />
    <path
       style="fill:#000000;fill-opacity:1;stroke:#ffffff;stroke-width:0;stroke-linecap:round;stroke-linejoin:round;stroke-miterlimit:4.2;stroke-opacity:1;paint-order:markers fill stroke"
       d="m 242.26243,216.46542 c -0.36644,-0.0602 -11.95632,-14.93995 -12.79166,-15.9894 -0.29644,-0.37243 5.42457,6.48609 5.41823,6.47551 -0.009,-0.0154 0.7017,-0.0192 3.53416,-0.0192 h 3.5457 l 1.16796,1.48892 c 3.75763,4.79023 6.02191,7.69232 6.25495,8.01681 l 0.0477,0.0664 h -3.46963 -3.46963 z"
       id="path7192"
       sodipodi:nodetypes="sscscsscccs" />
    <ellipse
       style="fill:#000000;fill-opacity:1;stroke:#ffffff;stroke-width:0;stroke-linecap:round;stroke-linejoin:round;stroke-miterlimit:4.2;stroke-opacity:1;paint-order:markers fill stroke"
       id="path9636"
       ry="7.8665633"
       rx="13.567612"
       cy="254.64684"
       cx="257.87305" />
    <ellipse
       style="fill:#000000;fill-opacity:1;stroke:#ffffff;stroke-width:0;stroke-linecap:round;stroke-linejoin:round;stroke-miterlimit:4.2;stroke-opacity:1;paint-order:markers fill stroke"
       id="path9761"
       cx="257.60785"
       cy="235.68753"
       rx="5.6126599"
       ry="5.1707182" />
  </g>
</svg>
