<?xml version="1.0" encoding="UTF-8" standalone="no"?>
<!-- Created with Inkscape (http://www.inkscape.org/) -->

<svg
   version="1.1"
   id="svg9"
   width="200.342"
   height="200.347"
   viewBox="0 0 200.342 200.347"
   sodipodi:docname="get_hired.svg"
   inkscape:version="1.1.2 (b8e25be833, 2022-02-05)"
   xmlns:inkscape="http://www.inkscape.org/namespaces/inkscape"
   xmlns:sodipodi="http://sodipodi.sourceforge.net/DTD/sodipodi-0.dtd"
   xmlns="http://www.w3.org/2000/svg"
   xmlns:svg="http://www.w3.org/2000/svg">
  <defs
     id="defs13" />
  <sodipodi:namedview
     id="namedview11"
     pagecolor="#ffffff"
     bordercolor="#666666"
     borderopacity="1.0"
     inkscape:pageshadow="2"
     inkscape:pageopacity="0.0"
     inkscape:pagecheckerboard="0"
     showgrid="false"
     inkscape:zoom="63.999999"
     inkscape:cx="102.57031"
     inkscape:cy="78.882813"
     inkscape:window-width="1920"
     inkscape:window-height="1011"
     inkscape:window-x="-9"
     inkscape:window-y="-9"
     inkscape:window-maximized="1"
     inkscape:current-layer="g15" />
  <g
     inkscape:groupmode="layer"
     inkscape:label="Image"
     id="g15">
    <ellipse
       style="fill:#ffe680;fill-opacity:1;stroke:#ffffff;stroke-width:0;stroke-linecap:round;stroke-linejoin:round;stroke-miterlimit:4.2;paint-order:markers fill stroke"
       id="path928"
       cx="100.12109"
       cy="100.12358"
       rx="100.12109"
       ry="100.12358" />
    <rect
       style="fill:#f8f8f8;fill-opacity:1;stroke:#ffffff;stroke-width:0;stroke-linecap:round;stroke-linejoin:round;stroke-miterlimit:4.2;paint-order:markers fill stroke"
       id="rect844"
       width="81.669205"
       height="103.50406"
       x="59.963589"
       y="71.991379"
       ry="7.6171813" />
    <rect
       style="fill:#000000;fill-opacity:1;stroke:#ffffff;stroke-width:0;stroke-linecap:round;stroke-linejoin:round;stroke-miterlimit:4.2;paint-order:markers fill stroke"
       id="rect1475"
       width="57.566238"
       height="4.5001764"
       x="71.115906"
       y="138.0157"
       ry="1.410251" />
    <rect
       style="fill:#000000;fill-opacity:1;stroke:#ffffff;stroke-width:0;stroke-linecap:round;stroke-linejoin:round;stroke-miterlimit:4.2;paint-order:markers fill stroke"
       id="rect1475-5"
       width="57.566238"
       height="4.5001764"
       x="71.115906"
       y="149.565"
       ry="1.410251" />
    <rect
       style="fill:#000000;fill-opacity:1;stroke:#ffffff;stroke-width:0;stroke-linecap:round;stroke-linejoin:round;stroke-miterlimit:4.2;paint-order:markers fill stroke"
       id="rect1475-5-3"
       width="35.318733"
       height="4.5001764"
       x="71.732071"
       y="159.98634"
       ry="1.410251" />
    <ellipse
       style="fill:#15bfd7;fill-opacity:1;stroke:#ffffff;stroke-width:0;stroke-linecap:round;stroke-linejoin:round;stroke-miterlimit:4.2;stroke-opacity:1;paint-order:markers fill stroke"
       id="path1876"
       cx="101.46887"
       cy="107.30173"
       rx="25.185259"
       ry="25.720594" />
    <rect
       style="fill:#ffcc00;fill-opacity:1;stroke:#ffffff;stroke-width:0;stroke-linecap:round;stroke-linejoin:round;stroke-miterlimit:4.2;stroke-opacity:1;paint-order:markers fill stroke"
       id="rect4968"
       width="28.546068"
       height="2.3726878"
       x="83.828339"
       y="75.28421"
       ry="1.1863439" />
    <ellipse
       style="fill:#000000;fill-opacity:1;stroke:#ffffff;stroke-width:0;stroke-linecap:round;stroke-linejoin:round;stroke-miterlimit:4.2;stroke-opacity:1;paint-order:markers fill stroke"
       id="path9636"
       ry="9.2420406"
       rx="17.388279"
       cy="116.699"
       cx="101.71117" />
    <ellipse
       style="fill:#000000;fill-opacity:1;stroke:#ffffff;stroke-width:0;stroke-linecap:round;stroke-linejoin:round;stroke-miterlimit:4.2;stroke-opacity:1;paint-order:markers fill stroke"
       id="path9761"
       cx="101.37131"
       cy="94.424629"
       rx="7.1931963"
       ry="6.0748243" />
    <path
       style="fill:none;stroke:#000000;stroke-width:1px;stroke-linecap:butt;stroke-linejoin:miter;stroke-opacity:1"
       d="m 44.901281,17.324116 c 0,0 7.424621,3.181981 13.788582,12.727922 6.363961,9.545942 25.138476,45.232172 25.138476,45.232172 0.07343,0.440571 7.836276,1.135007 8.555545,-0.04937 0.472365,-0.777816 -15.75,-40.000001 -18.625,-45.000001 -2.875,-5 -15.008883,-21.4848349 -15.008883,-21.4848349 0,0 -14.947439,7.0232319 -13.84872,8.5741159 z"
       id="path1695"
       sodipodi:nodetypes="cscsscc" />
    <path
       style="fill:#000000;stroke:#ffffff;stroke-width:0;stroke-linecap:round;stroke-linejoin:round;stroke-miterlimit:4.2;paint-order:markers fill stroke"
       d="m 58.47269,9.2077525 c -2.615898,1.1855065 -5.170706,2.5184255 -7.692894,3.8949565 -1.87893,1.096735 -3.868165,2.098705 -5.445033,3.622541 -0.260781,0.520977 0.504109,0.70754 0.81038,0.949066 5.977413,3.408111 10.709915,8.664695 14.208757,14.526072 5.272054,8.709632 10.109042,17.670376 14.971458,26.61165 2.394926,4.430258 4.763459,8.87465 7.128023,13.32114 0.457171,0.349743 1.133357,0.06938 1.679033,0.159168 2.214866,-0.02952 4.437602,0.06622 6.647771,-0.08373 0.529263,-0.244179 0.01444,-0.863553 -0.05994,-1.24732 C 86.495825,60.057209 82.017664,49.250983 77.343926,38.531908 75.961277,35.493129 74.693154,32.386054 73.013176,29.495066 69.110002,23.433671 64.861685,17.602877 60.626213,11.771516 59.96738,10.933562 59.404665,9.9994027 58.666902,9.2334749 58.602366,9.2332186 58.537148,9.2023562 58.47269,9.2077525 Z"
       id="path4771" />
    <path
       style="fill:#000000;stroke:#ffffff;stroke-width:0;stroke-linecap:round;stroke-linejoin:round;stroke-miterlimit:4.2;paint-order:markers fill stroke"
       d="m 138.36774,6.1721927 c 2.77768,1.3017254 4.42865,2.0790383 7.10682,3.5905154 1.99513,1.2042519 5.16924,2.9907269 6.84362,4.6639499 0.27691,0.57205 -0.53528,0.776902 -0.8605,1.042106 -6.34708,3.74222 -11.37226,9.514127 -15.08749,15.950116 -5.5981,9.563469 -10.73424,19.402667 -15.89736,29.220487 -2.54304,4.864573 -5.9018,9.775915 -8.41261,14.658311 -0.48545,0.384028 -0.39095,0.341805 -0.97037,0.440396 -2.88309,0.28009 -4.69642,0.05709 -7.02765,-0.20131 -0.56199,-0.268117 -0.0153,-1.135711 0.0636,-1.5571 4.48567,-11.973055 9.24078,-23.838654 14.20357,-35.608559 1.46816,-3.336682 2.8147,-6.748355 4.59858,-9.922756 4.14456,-6.655616 8.65562,-13.058025 13.15303,-19.4610557 0.69958,-0.9201014 1.50337,-1.9740818 2.28675,-2.8150966 0.0685,-2.811e-4 0,0 -4e-5,1.1e-6 z"
       id="path4771-1"
       sodipodi:nodetypes="sccccccccccccccs" />
    <path
       style="fill:#000000;stroke:#ffffff;stroke-width:0;stroke-linecap:round;stroke-linejoin:round;stroke-miterlimit:4.2;paint-order:markers fill stroke"
       d="m 90.844726,71.892395 c -0.585896,0.101387 -1.19262,0.06439 -1.786465,0.08995 -2.011449,0.03683 -4.024165,-0.0053 -6.035048,0.05151 -0.22082,-0.02977 -0.502064,0.106236 -0.451481,0.363287 0.280394,0.620992 0.632349,1.213211 0.942289,1.82214 0.185983,0.30744 0.308134,0.66322 0.54207,0.936293 0.372669,0.186913 0.80801,0.196316 1.212398,0.274896 0.994529,0.170981 2.006741,0.107671 3.010746,0.129278 0.954065,-0.01172 1.911009,0.03441 2.863221,-0.03302 0.307673,-0.07359 0.668583,-0.0909 0.907776,-0.319702 0.183544,-0.25354 -0.02644,-0.560289 -0.07892,-0.82428 -0.256372,-0.771655 -0.50515,-1.54891 -0.816406,-2.299987 -0.05949,-0.114691 -0.179026,-0.194168 -0.310181,-0.190369 z"
       id="path4810" />
  </g>
</svg>
